<svg width="29" height="29" viewBox="0 0 29 29" fill="none" xmlns="http://www.w3.org/2000/svg">
<rect width="28.784" height="28.784" rx="6.08892" fill="#333333"/>
<path d="M14.7773 28.3926C22.5093 28.3926 28.7773 22.1246 28.7773 14.3926C28.7773 6.66059 22.5093 0.392578 14.7773 0.392578C7.04536 0.392578 0.777344 6.66059 0.777344 14.3926C0.777344 22.1246 7.04536 28.3926 14.7773 28.3926Z" fill="#333333"/>
<path d="M21.0212 5.5332H18.2012C16.5278 5.5332 14.6664 6.26185 14.6664 8.7731C14.6746 9.64812 14.6664 10.4861 14.6664 11.4293H12.7305V14.6185H14.7263V23.7999H18.3938V14.5579H20.8145L21.0335 11.4203H18.3306C18.3306 11.4203 18.3367 10.0245 18.3306 9.61921C18.3306 8.62682 19.3281 8.68365 19.3881 8.68365C19.8627 8.68365 20.7856 8.68508 21.0226 8.68365V5.5332H21.0212V5.5332Z" fill="white"/>
</svg>
