<svg width="277" height="65" viewBox="0 0 277 65" fill="none" xmlns="http://www.w3.org/2000/svg">
<rect x="0.5" y="0.5" width="16" height="64" stroke="black"/>
<rect x="3.5" y="5.5" width="10" height="44" fill="black" stroke="black"/>
<rect x="1.70711" y="12.0209" width="16" height="44.5283" transform="rotate(-45 1.70711 12.0209)" stroke="black"/>
<rect x="7.00801" y="13.0792" width="10" height="36.1954" transform="rotate(-45 7.00801 13.0792)" fill="black" stroke="black"/>
<rect x="53.1934" y="0.707107" width="16" height="44.5283" transform="rotate(45 53.1934 0.707107)" stroke="black"/>
<rect x="51.7886" y="6.35475" width="10" height="36.3549" transform="rotate(45 51.7886 6.35475)" fill="black" stroke="black"/>
<rect x="49.5" y="0.5" width="16" height="64" stroke="black"/>
<rect x="52.5" y="5.5" width="10" height="44" fill="black" stroke="black"/>
<path d="M127.093 8.88385C132.609 13.9267 135.933 21.0583 136.933 28.5H129.44C128.668 22.9437 125.885 18.5068 121.751 14.7266C117.487 10.8277 111.963 8.59178 106.187 8.42684C100.412 8.2619 94.7694 10.1789 90.2897 13.8282C85.8099 17.4774 82.7915 22.6156 81.7851 28.3052C80.7787 33.9949 81.8514 39.8567 84.8075 44.8212C87.7636 49.7858 92.406 53.522 97.8878 55.3483C103.37 57.1746 109.325 56.9692 114.668 54.7696C119.857 52.6335 124.132 48.755 126.762 43.8103L133.828 47.3831C130.34 54.0226 124.627 59.2313 117.682 62.0905C110.583 65.0132 102.669 65.2861 95.3854 62.8594C88.1016 60.4328 81.933 55.4683 78.0051 48.8717C74.0772 42.2752 72.6519 34.4863 73.9891 26.9263C75.3264 19.3662 79.3371 12.5389 85.2895 7.69001C91.2419 2.84113 98.7392 0.293888 106.413 0.513051C114.088 0.732214 121.427 3.70317 127.093 8.88385Z" stroke="black"/>
<path d="M121.417 39.774C119.68 43.5733 116.642 46.6262 112.852 48.381C109.061 50.1358 104.767 50.4767 100.747 49.3422C96.7269 48.2077 93.2451 45.6726 90.931 42.195C88.6168 38.7174 87.6229 34.5267 88.1289 30.3803C88.6348 26.2338 90.6073 22.4051 93.6899 19.586C96.7724 16.767 100.762 15.1435 104.937 15.0091C109.112 14.8746 113.197 16.238 116.455 18.8529C119.712 21.4678 121.927 25.1616 122.699 29.2669L116.847 30.3669C116.338 27.6584 114.877 25.2213 112.728 23.4961C110.578 21.7709 107.883 20.8714 105.128 20.9601C102.374 21.0488 99.7418 22.1199 97.7081 23.9798C95.6743 25.8397 94.373 28.3658 94.0391 31.1015C93.7053 33.8372 94.361 36.602 95.8879 38.8964C97.4147 41.1908 99.7118 42.8634 102.364 43.6119C105.017 44.3604 107.849 44.1355 110.35 42.9777C112.851 41.8199 114.856 39.8058 116.001 37.2991L121.417 39.774Z" fill="black"/>
<path d="M81.7742 28.9883C81.8156 28.8042 81.8555 28.637 81.889 28.5H137.09L137.49 30.5L137.09 32.5H81.4765C81.472 32.382 81.4675 32.2474 81.4641 32.1025C81.4523 31.6027 81.4531 31.0029 81.4976 30.5488C81.543 30.0857 81.6622 29.4857 81.7742 28.9883Z" stroke="black"/>
<path d="M93 28H122.5L123 31V33H93V28Z" fill="black"/>
<rect x="145.5" y="0.5" width="16" height="64" stroke="black"/>
<path d="M171.849 3.5L180.5 9.26759L180.5 16.5L145.5 16.5L145.5 3.5L171.849 3.5Z" stroke="black"/>
<rect x="148.286" y="7.5" width="10" height="42" fill="black" stroke="black"/>
<path d="M150.286 7.5H168.635L174.286 11.2676V14.5H150.286V7.5Z" fill="black" stroke="black"/>
<mask id="path-17-inside-1_12_419" fill="white">
<path d="M247.031 51.2711C242.982 56.9938 237.191 61.2539 230.523 63.4158C223.855 65.5778 216.666 65.5256 210.029 63.2671C203.393 61.0086 197.665 56.6649 193.699 50.8841C189.734 45.1032 187.744 38.1952 188.026 31.1907C188.309 24.1862 190.848 17.4608 195.266 12.018C199.684 6.57512 205.744 2.70666 212.54 0.989779C219.337 -0.727098 226.507 -0.200344 232.979 2.49144C239.452 5.18323 244.881 9.89574 248.456 15.9258L240.786 20.4733C238.192 16.0977 234.252 12.6781 229.555 10.7249C224.859 8.77164 219.656 8.38941 214.724 9.63523C209.792 10.881 205.395 13.6881 202.19 17.6376C198.984 21.5871 197.141 26.4673 196.936 31.5499C196.731 36.6326 198.175 41.6453 201.053 45.84C203.93 50.0348 208.087 53.1867 212.902 54.8256C217.718 56.4644 222.934 56.5022 227.773 54.9335C232.612 53.3647 236.814 50.2734 239.752 46.1209L247.031 51.2711Z"/>
</mask>
<path d="M247.031 51.2711C242.982 56.9938 237.191 61.2539 230.523 63.4158C223.855 65.5778 216.666 65.5256 210.029 63.2671C203.393 61.0086 197.665 56.6649 193.699 50.8841C189.734 45.1032 187.744 38.1952 188.026 31.1907C188.309 24.1862 190.848 17.4608 195.266 12.018C199.684 6.57512 205.744 2.70666 212.54 0.989779C219.337 -0.727098 226.507 -0.200344 232.979 2.49144C239.452 5.18323 244.881 9.89574 248.456 15.9258L240.786 20.4733C238.192 16.0977 234.252 12.6781 229.555 10.7249C224.859 8.77164 219.656 8.38941 214.724 9.63523C209.792 10.881 205.395 13.6881 202.19 17.6376C198.984 21.5871 197.141 26.4673 196.936 31.5499C196.731 36.6326 198.175 41.6453 201.053 45.84C203.93 50.0348 208.087 53.1867 212.902 54.8256C217.718 56.4644 222.934 56.5022 227.773 54.9335C232.612 53.3647 236.814 50.2734 239.752 46.1209L247.031 51.2711Z" stroke="black" stroke-width="2" mask="url(#path-17-inside-1_12_419)"/>
<path d="M236.384 39.8455C234.722 43.4389 231.891 46.3626 228.353 48.1392C224.815 49.9157 220.779 50.4401 216.904 49.6266C213.03 48.8131 209.545 46.7098 207.02 43.6603C204.496 40.6108 203.079 36.7953 203.003 32.837C202.927 28.8787 204.195 25.0115 206.601 21.867C209.006 18.7226 212.407 16.4867 216.247 15.5246C220.088 14.5625 224.141 14.931 227.745 16.57C231.349 18.209 234.29 21.0216 236.089 24.5483L230.785 27.2538C229.598 24.9269 227.658 23.0713 225.28 21.99C222.902 20.9086 220.228 20.6655 217.694 21.3002C215.16 21.935 212.917 23.4101 211.33 25.4847C209.743 27.5593 208.906 30.1108 208.956 32.7223C209.007 35.3339 209.941 37.8512 211.607 39.8632C213.272 41.8751 215.571 43.2628 218.128 43.7995C220.684 44.3362 223.347 43.9903 225.681 42.8182C228.015 41.6461 229.883 39.7171 230.98 37.3463L236.384 39.8455Z" fill="black"/>
<rect x="260.5" y="0.5" width="16" height="64" stroke="black"/>
<rect x="263.286" y="10.5" width="10" height="39" fill="black" stroke="black"/>
</svg>
