<svg width="1099" height="241" viewBox="0 0 1099 241" fill="none" xmlns="http://www.w3.org/2000/svg">
<rect x="2.63629" y="2.63629" width="36.9081" height="231.994" fill="white" stroke="white" stroke-width="5.27258"/>
<rect x="14.2737" y="29.8264" width="36.9081" height="177.386" transform="rotate(-45 14.2737 29.8264)" fill="white" stroke="white" stroke-width="5.27258"/>
<rect x="244.517" y="3.72828" width="36.9081" height="179.197" transform="rotate(45 244.517 3.72828)" fill="white" stroke="white" stroke-width="5.27258"/>
<rect x="245.175" y="2.63629" width="36.9081" height="231.994" fill="white" stroke="white" stroke-width="5.27258"/>
<path d="M548.16 167.944C536.39 193.699 515.795 214.395 490.097 226.291C464.4 238.187 435.294 240.498 408.041 232.807C380.788 225.116 357.185 207.931 341.497 184.356C325.809 160.781 319.071 132.372 322.501 104.263C325.931 76.1543 339.303 50.1993 360.2 31.0888C381.096 11.9784 408.14 0.972951 436.443 0.0614713C464.745 -0.850009 492.441 8.39256 514.524 26.1189C536.607 43.8453 551.621 68.8861 556.852 96.7161L517.184 104.173C513.732 85.8118 503.827 69.2907 489.257 57.5955C474.687 45.9003 456.415 39.8023 437.742 40.4037C419.068 41.0051 401.226 48.266 387.439 60.8745C373.653 73.4829 364.83 90.6071 362.567 109.152C360.304 127.698 364.75 146.441 375.1 161.995C385.45 177.549 401.023 188.887 419.004 193.961C436.984 199.035 456.187 197.51 473.141 189.662C490.096 181.813 503.684 168.159 511.449 151.167L548.16 167.944Z" fill="white"/>
<path d="M355.522 88.1276H555.504L558.894 108.465V122.023H355.522V88.1276Z" fill="white"/>
<rect x="598.439" y="2.63629" width="42.1807" height="231.994" fill="white" stroke="white" stroke-width="5.27258"/>
<path d="M608.984 2.63629H705.729L735.526 22.5012V39.5444H608.984V2.63629Z" fill="white" stroke="white" stroke-width="5.27258"/>
<path d="M1001.38 168.428C990.115 192.788 970.923 212.609 946.938 224.652C922.953 236.695 895.593 240.25 869.328 234.735C843.062 229.22 819.442 214.962 802.326 194.289C785.21 173.617 775.61 147.751 775.093 120.918C774.576 94.0841 783.173 67.8681 799.48 46.5517C815.787 25.2353 838.841 10.0783 864.875 3.5562C890.909 -2.96588 918.385 -0.467529 942.816 10.6432C967.247 21.7539 987.188 40.8203 999.383 64.7283L963.427 83.0686C955.382 67.295 942.225 54.7156 926.106 47.3852C909.988 40.0547 891.86 38.4064 874.683 42.7094C857.507 47.0124 842.297 57.0125 831.538 71.0763C820.78 85.1402 815.107 102.437 815.448 120.14C815.789 137.844 822.123 154.909 833.416 168.548C844.708 182.188 860.292 191.595 877.621 195.233C894.951 198.871 913.002 196.526 928.826 188.581C944.65 180.635 957.313 167.558 964.745 151.486L1001.38 168.428Z" fill="white"/>
<rect x="1051.88" y="2.63629" width="42.1807" height="231.994" fill="white" stroke="white" stroke-width="5.27258"/>
</svg>
